<svg width="48" height="48" viewBox="0 0 48 48" fill="none" xmlns="http://www.w3.org/2000/svg">
<circle opacity="0.1" cx="24" cy="24" r="20" fill="white"/>
<g opacity="0.5">
<path d="M26 16C26 16.1136 25.9905 16.225 25.9723 16.3334C26.8189 16.6281 27.5968 17.1115 28.2426 17.7574C29.3679 18.8826 30 20.4087 30 22C30 29 33 31 33 31H15C15 31 18 29 18 22C18 20.4087 18.6321 18.8826 19.7574 17.7574C20.4032 17.1115 21.1811 16.6281 22.0277 16.3334C22.0095 16.225 22 16.1136 22 16C22 14.8954 22.8954 14 24 14C25.1046 14 26 14.8954 26 16Z" fill="white"/>
<path d="M25.731 33.2651C26.2575 32.9618 26.6951 32.5256 27 32H21C21.3049 32.5256 21.7425 32.9618 22.269 33.2651C22.7955 33.5683 23.3924 33.728 24 33.728C24.6076 33.728 25.2045 33.5683 25.731 33.2651Z" fill="white"/>
</g>
</svg>
