<svg width="255" height="92" viewBox="0 0 255 92" fill="none" xmlns="http://www.w3.org/2000/svg">
<path d="M3 20L15 8H79.5L83 3H173.305L176.737 8H240.5L252 20V68.5L240.5 84H177.5L173.5 89L83.5 90L79.5 84H16.5L3 68.5V20Z" fill="url(#paint0_linear_763_19403)"/>
<path d="M81.4935 0L75.9055 7.93849H15.1013L0 23.0864V52H3V24.3263L16.3467 10.9385H77.4625L83.0505 3H173.214L178.714 10.9385H238.87L252 24.3193V51.5H255V23.0933L240.13 7.93849H180.286L174.786 0H81.4935Z" fill="black"/>
<path d="M81.4935 92L75.9055 84.0615H15.1013L0 68.9136V30H3V67.6737L16.3467 81.0615H77.4625L83.0505 89H173.214L178.714 81.0615H238.87L252 67.6807V30.5H255V68.9067L240.13 84.0615H180.286L174.786 92H81.4935Z" fill="black"/>
<path d="M87 19C86.6397 19 86.3073 18.8062 86.1298 18.4927C85.9523 18.1792 85.9571 17.7944 86.1425 17.4855L89.1425 12.4855C89.3232 12.1843 89.6487 12 90 12H165C165.351 12 165.677 12.1843 165.857 12.4855L168.857 17.4855C169.043 17.7944 169.048 18.1792 168.87 18.4927C168.693 18.8062 168.36 19 168 19H87Z" fill="#DC1C98" stroke="black" stroke-width="2" stroke-linejoin="round"/>
<path d="M87 73C86.6397 73 86.3073 73.1938 86.1298 73.5073C85.9523 73.8208 85.9571 74.2056 86.1425 74.5145L89.1425 79.5145C89.3232 79.8157 89.6487 80 90 80H165C165.351 80 165.677 79.8157 165.857 79.5145L168.857 74.5145C169.043 74.2056 169.048 73.8208 168.87 73.5073C168.693 73.1938 168.36 73 168 73H87Z" fill="#DC1C98" stroke="black" stroke-width="2" stroke-linejoin="round"/>
<defs>
<linearGradient id="paint0_linear_763_19403" x1="127.5" y1="3" x2="127.5" y2="84" gradientUnits="userSpaceOnUse">
<stop stop-color="#36004B"/>
<stop offset="1" stop-color="#501866"/>
</linearGradient>
</defs>
</svg>
