<svg width="249" height="49" viewBox="0 0 249 49" fill="none" xmlns="http://www.w3.org/2000/svg">
<mask id="path-1-inside-1_763_19397" fill="white">
<path fill-rule="evenodd" clip-rule="evenodd" d="M12 0L0 9.78947V15V34V39.2105L12 49H76.5H80H170.305H173.737H237.5L249 39.2105V34V15V9.78947L237.5 0H173.737H170.305H80H76.5H12Z"/>
</mask>
<path fill-rule="evenodd" clip-rule="evenodd" d="M12 0L0 9.78947V15V34V39.2105L12 49H76.5H80H170.305H173.737H237.5L249 39.2105V34V15V9.78947L237.5 0H173.737H170.305H80H76.5H12Z" fill="url(#paint0_linear_763_19397)"/>
<path d="M0 9.78947L-1.89638 7.46488L-3 8.3652V9.78947H0ZM12 0V-3H10.9315L10.1036 -2.32459L12 0ZM0 39.2105H-3V40.6348L-1.89638 41.5351L0 39.2105ZM12 49L10.1036 51.3246L10.9315 52H12V49ZM237.5 49V52H238.604L239.445 51.2844L237.5 49ZM249 39.2105L250.945 41.4949L252 40.5965V39.2105H249ZM249 9.78947H252V8.40348L250.945 7.50507L249 9.78947ZM237.5 0L239.445 -2.2844L238.604 -3H237.5V0ZM1.89638 12.1141L13.8964 2.32459L10.1036 -2.32459L-1.89638 7.46488L1.89638 12.1141ZM3 15V9.78947H-3V15H3ZM-3 15V34H3V15H-3ZM-3 34V39.2105H3V34H-3ZM-1.89638 41.5351L10.1036 51.3246L13.8964 46.6754L1.89638 36.8859L-1.89638 41.5351ZM12 52H76.5V46H12V52ZM76.5 52H80V46H76.5V52ZM80 52H170.305V46H80V52ZM170.305 52H173.737V46H170.305V52ZM173.737 52H237.5V46H173.737V52ZM239.445 51.2844L250.945 41.4949L247.055 36.9261L235.555 46.7156L239.445 51.2844ZM252 39.2105V34H246V39.2105H252ZM252 34V15H246V34H252ZM246 9.78947V15H252V9.78947H246ZM235.555 2.2844L247.055 12.0739L250.945 7.50507L239.445 -2.2844L235.555 2.2844ZM173.737 3H237.5V-3H173.737V3ZM170.305 3H173.737V-3H170.305V3ZM80 3H170.305V-3H80V3ZM76.5 3H80V-3H76.5V3ZM12 3H76.5V-3H12V3Z" fill="black" mask="url(#path-1-inside-1_763_19397)"/>
<defs>
<linearGradient id="paint0_linear_763_19397" x1="124.5" y1="53.0789" x2="124.5" y2="-13" gradientUnits="userSpaceOnUse">
<stop offset="0.9999" stop-color="#36004B"/>
<stop offset="1" stop-color="#501866"/>
</linearGradient>
</defs>
</svg>
